# Blender v2.93.1 OBJ File: ''
# www.blender.org
o Cube_Cube.012
v -6.378972 3.358323 -1.163691
v -6.378972 3.582734 -1.163691
v -5.439446 3.358323 -1.936799
v -5.439446 3.582734 -1.936799
v -5.605864 3.358323 -0.224166
v -5.605864 3.582734 -0.224166
v -4.666338 3.358323 -0.997274
v -4.666338 3.582734 -0.997274
vt 0.625000 0.000000
vt 0.375000 0.250000
vt 0.375000 0.000000
vt 0.625000 0.250000
vt 0.375000 0.500000
vt 0.625000 0.500000
vt 0.375000 0.750000
vt 0.625000 0.750000
vt 0.375000 1.000000
vt 0.125000 0.750000
vt 0.125000 0.500000
vt 0.875000 0.500000
vt 0.625000 1.000000
vt 0.875000 0.750000
vn -0.6354 0.0000 -0.7722
vn 0.7722 0.0000 -0.6354
vn 0.6354 0.0000 0.7722
vn -0.7722 0.0000 0.6354
vn 0.0000 -1.0000 0.0000
vn 0.0000 1.0000 0.0000
s off
f 2/1/1 3/2/1 1/3/1
f 4/4/2 7/5/2 3/2/2
f 8/6/3 5/7/3 7/5/3
f 6/8/4 1/9/4 5/7/4
f 7/5/5 1/10/5 3/11/5
f 4/12/6 6/8/6 8/6/6
f 2/1/1 4/4/1 3/2/1
f 4/4/2 8/6/2 7/5/2
f 8/6/3 6/8/3 5/7/3
f 6/8/4 2/13/4 1/9/4
f 7/5/5 5/7/5 1/10/5
f 4/12/6 2/14/6 6/8/6
